<?xml version="1.0" encoding="utf-8"?>
<!-- Generator: Adobe Illustrator 15.1.0, SVG Export Plug-In . SVG Version: 6.00 Build 0)  -->
<!DOCTYPE svg PUBLIC "-//W3C//DTD SVG 1.1//EN" "http://www.w3.org/Graphics/SVG/1.1/DTD/svg11.dtd">
<svg version="1.1" id="Calque_1" xmlns="http://www.w3.org/2000/svg" xmlns:xlink="http://www.w3.org/1999/xlink" x="0px" y="0px"
	 width="570px" height="812px" viewBox="0 0 570 812" enable-background="new 0 0 570 812" xml:space="preserve">
<g>
	<path d="M2.136,784.715h20.547v2.106h-9.038v23.814h-2.469v-23.814H2.136V784.715z"/>
	<path d="M28.708,784.715h17.898v2.106H31.176v9.364h14.449v2.105H31.176v10.239h15.611v2.105h-18.08V784.715z"/>
	<path d="M72.814,792.558c-0.872-3.995-4.176-6.281-7.953-6.281c-6.861,0-9.764,5.736-9.764,11.399c0,5.664,2.903,11.4,9.764,11.4
		c4.793,0,7.843-3.705,8.313-8.313h2.471c-0.691,6.352-4.72,10.418-10.785,10.418c-8.168,0-12.234-6.425-12.234-13.505
		s4.066-13.505,12.234-13.505c4.903,0,9.768,2.939,10.42,8.387H72.814z"/>
	<path d="M83.011,784.715h2.469v11.255h15.392v-11.255h2.469v25.921h-2.469v-12.563H85.48v12.563h-2.469V784.715z"/>
	<path d="M112.16,784.715h2.758l15.103,21.929h0.073v-21.929h2.469v25.921h-2.758l-15.103-21.926h-0.073v21.926h-2.469V784.715z"/>
	<path d="M152.199,784.171c8.132,0,12.197,6.425,12.197,13.505s-4.065,13.505-12.197,13.505c-8.168,0-12.235-6.425-12.235-13.505
		S144.031,784.171,152.199,784.171z M152.199,809.076c6.826,0,9.729-5.736,9.729-11.4c0-5.663-2.903-11.399-9.729-11.399
		c-6.861,0-9.766,5.736-9.766,11.399C142.434,803.34,145.338,809.076,152.199,809.076z"/>
	<path d="M171.837,784.715h2.469v23.815h14.521v2.105h-16.989V784.715z"/>
	<path d="M205.813,784.171c8.132,0,12.198,6.425,12.198,13.505s-4.066,13.505-12.198,13.505c-8.168,0-12.234-6.425-12.234-13.505
		S197.645,784.171,205.813,784.171z M205.813,809.076c6.826,0,9.729-5.736,9.729-11.4c0-5.663-2.903-11.399-9.729-11.399
		c-6.861,0-9.766,5.736-9.766,11.399C196.048,803.34,198.953,809.076,205.813,809.076z"/>
	<path d="M247.597,810.636h-1.779l-0.328-4.719h-0.071c-1.744,3.703-5.227,5.264-8.967,5.264c-8.168,0-12.234-6.425-12.234-13.505
		s4.066-13.505,12.234-13.505c5.445,0,9.874,2.939,10.819,8.604h-2.469c-0.328-2.976-3.414-6.499-8.35-6.499
		c-6.862,0-9.766,5.736-9.766,11.399c0,5.664,2.903,11.4,9.766,11.4c5.736,0,9.075-4.031,8.967-9.513h-8.823v-2.105h11V810.636z"/>
	<path d="M263.203,799.963l-10.202-15.248h2.941l8.531,13.141l8.495-13.141h2.941l-10.238,15.248v10.673h-2.469V799.963z"/>
	<path d="M309.741,807.26c-1.887,2.36-4.575,3.921-7.624,3.921c-4.467,0-7.842-2.577-7.842-7.261c0-3.703,3.448-6.136,6.352-7.696
		c-1.416-1.852-3.194-3.738-3.194-6.244c0-3.158,2.578-5.265,5.735-5.265c3.161,0,5.738,2.106,5.738,5.265
		c0,3.23-2.506,5.082-5.083,6.716l5.662,6.826c0.618-1.271,0.763-2.396,0.763-4.357h2.288c0,1.452-0.327,3.993-1.524,6.207
		l4.355,5.265H312.5L309.741,807.26z M301.861,797.712c-2.467,1.343-5.301,3.304-5.301,6.426c0,3.05,2.688,5.119,5.629,5.119
		c2.578,0,4.683-1.634,6.136-3.703L301.861,797.712z M299.72,789.979c0,1.815,1.779,3.847,2.906,5.228
		c1.814-1.126,3.992-2.722,3.992-5.228c0-2.143-1.561-3.339-3.45-3.339C301.28,786.641,299.72,787.837,299.72,789.979z"/>
	<path d="M335.147,784.715h2.472v25.921h-2.472V784.715z"/>
	<path d="M346.617,784.715h2.76l15.103,21.929h0.072v-21.929h2.47v25.921h-2.76l-15.103-21.926h-0.071v21.926h-2.471V784.715z"/>
	<path d="M375.803,784.715h2.759l15.104,21.929h0.071v-21.929h2.472v25.921h-2.761l-15.104-21.926h-0.07v21.926h-2.471V784.715z"/>
	<path d="M415.844,784.171c8.13,0,12.197,6.425,12.197,13.505s-4.067,13.505-12.197,13.505c-8.168,0-12.236-6.425-12.236-13.505
		S407.676,784.171,415.844,784.171z M415.844,809.076c6.824,0,9.729-5.736,9.729-11.4c0-5.663-2.904-11.399-9.729-11.399
		c-6.863,0-9.768,5.736-9.768,11.399C406.076,803.34,408.98,809.076,415.844,809.076z"/>
	<path d="M432.648,784.715h2.649l8.423,23.197h0.072l8.352-23.197h2.614l-9.622,25.921h-2.867L432.648,784.715z"/>
	<path d="M466.263,784.715h2.758l10.166,25.921h-2.649l-3.157-8.06h-11.802l-3.121,8.06h-2.65L466.263,784.715z M462.341,800.472
		h10.201l-5.009-13.288L462.341,800.472z"/>
	<path d="M479.908,784.715h20.549v2.106h-9.041v23.814h-2.468v-23.814h-9.04V784.715z"/>
	<path d="M506.662,784.715h2.471v25.921h-2.471V784.715z"/>
	<path d="M529.025,784.171c8.131,0,12.198,6.425,12.198,13.505s-4.067,13.505-12.198,13.505c-8.17,0-12.236-6.425-12.236-13.505
		S520.855,784.171,529.025,784.171z M529.025,809.076c6.822,0,9.729-5.736,9.729-11.4c0-5.663-2.907-11.399-9.729-11.399
		c-6.862,0-9.768,5.736-9.768,11.399C519.258,803.34,522.163,809.076,529.025,809.076z"/>
	<path d="M548.662,784.715h2.758l15.104,21.929h0.07v-21.929h2.47v25.921h-2.758l-15.105-21.926h-0.071v21.926h-2.468V784.715z"/>
</g>
<g>
	<g>
		<path d="M2.136,741.264v-60.375c4.104,2.666,25.39,16.746,28.149,18.613c2.847-1.959,25.199-16.469,28.321-18.613v60.375H43.73
			v-31.885c-2.217,1.52-11.668,7.4-13.445,8.469c-1.961-1.16-11.224-7.123-13.357-8.469v31.885H2.136z"/>
		<path d="M77.819,741.264H61.615c0.439-1.236,21.014-58.23,21.363-59.396h15.5c0.355,0.98,21.813,57.977,22.352,59.396h-16.388
			c-0.448-1.236-3.3-8.986-3.646-9.969H81.285C81.019,732.096,78.078,740.469,77.819,741.264 M90.726,703.953
			c-0.348,1.072-4.085,11.938-4.358,12.734h8.99C95.097,715.98,91.085,704.928,90.726,703.953"/>
		<path d="M123.929,741.264v-60.557c2.4,2.141,29.57,26.545,32.502,29.037v-27.877h14.883v60.553
			c-2.938-2.576-29.927-26.797-32.427-29.031v27.875H123.929z"/>
		<path d="M190.51,741.264h-16.204c0.455-1.236,21.016-58.23,21.378-59.396h15.499c0.357,0.98,21.812,57.977,22.354,59.396h-16.388
			c-0.45-1.236-3.3-8.986-3.647-9.969h-19.511C193.727,732.096,190.786,740.469,190.51,741.264 M203.434,703.953
			c-0.363,1.072-4.103,11.938-4.36,12.734h8.987C207.788,715.98,203.793,704.928,203.434,703.953"/>
		<path d="M285.411,690.6c-1.414,1.504-9.163,9.344-10.593,10.863c-2.324-3.023-6.594-6.238-12.382-6.238
			c-9.428,0-16.023,7.566-16.023,16.391c0,9.25,7.302,16.648,15.849,16.648c5.164,0,9.973-2.225,12.557-6.326h-13.362v-13.539
			h31.703c0.102,0.629,0.102,1.869,0.102,2.5c0,17.551-13.632,31.795-31.092,31.795c-17.263,0-30.906-14.063-30.906-31.078
			c0-16.115,13.016-31.166,31.449-31.166C272.494,680.449,280.426,685.258,285.411,690.6"/>
		<polygon points="298.516,741.264 298.516,681.867 345.719,681.867 345.719,696.561 313.476,696.561 313.476,704.311 
			338.317,704.311 338.317,718.922 313.476,718.922 313.476,726.578 345.719,726.578 345.719,741.264 		"/>
		<path d="M353.52,741.264v-60.375c4.118,2.666,25.383,16.746,28.148,18.613c2.849-1.959,25.201-16.469,28.324-18.613v60.375
			h-14.876v-31.885c-2.218,1.52-11.67,7.4-13.448,8.469c-1.967-1.16-11.211-7.123-13.362-8.469v31.885H353.52z"/>
		<polygon points="419.449,741.264 419.449,681.867 466.628,681.867 466.628,696.561 434.387,696.561 434.387,704.311 
			459.244,704.311 459.244,718.922 434.387,718.922 434.387,726.578 466.628,726.578 466.628,741.264 		"/>
		<path d="M474.453,741.264v-60.557c2.41,2.141,29.564,26.545,32.504,29.037v-27.877h14.874v60.553
			c-2.941-2.576-29.925-26.797-32.425-29.031v27.875H474.453z"/>
		<polygon points="539.224,741.264 539.224,696.561 524.703,696.561 524.703,681.867 569.064,681.867 569.064,696.561 
			554.546,696.561 554.546,741.264 		"/>
	</g>
	<polygon points="71.672,652.232 71.672,592.834 118.868,592.834 118.868,607.523 86.641,607.523 86.641,615.271 111.468,615.271 
		111.468,629.877 86.641,629.877 86.641,637.531 118.868,637.531 118.868,652.232 	"/>
	<path d="M165.6,612.33c-2.22-2.143-5.515-6.049-12.375-6.049c-8.716,0-16.031,7.205-16.031,16.299
		c0,8.637,7.133,16.205,16.031,16.205c5.166,0,9.709-2.939,12.641-6.604c0.896,0.904,9.441,9.619,10.333,10.523
		c-4.088,4.445-12.019,10.951-22.973,10.951c-16.738,0-31.341-13.094-31.341-31.076c0-17.818,14.337-31.171,31.341-31.171
		c11.227,0,18.612,5.872,22.807,10.141C175.307,602.271,166.762,611.182,165.6,612.33"/>
	<path d="M175.49,622.58c0-17.277,13.898-31.171,31.083-31.171c17.275,0,31.165,13.895,31.165,31.171
		c0,17.184-13.889,31.074-31.075,31.074C189.388,653.654,175.49,639.764,175.49,622.58 M190.625,622.58
		c0,9.168,6.944,16.279,16.037,16.279c9.079,0,15.94-7.111,15.94-16.279c0-9.178-6.949-16.389-16.03-16.389
		C197.569,606.191,190.625,613.402,190.625,622.58"/>
	<polygon points="297.61,652.232 297.61,592.834 344.792,592.834 344.792,607.523 312.563,607.523 312.563,615.271 337.407,615.271 
		337.407,629.877 312.563,629.877 312.563,637.531 344.792,637.531 344.792,652.232 	"/>
	<path d="M391.007,652.234v-59.4h24.842c17.533,0,30.366,13.175,30.366,29.746c0,17.623-14.252,29.654-30.275,29.654H391.007z
		 M406.05,607.337v30.194h9.715c7.923,0,15.309-6.494,15.309-14.951c0-8.914-6.769-15.243-15.58-15.243H406.05z"/>
	<polygon points="452.324,652.232 452.324,592.834 499.526,592.834 499.526,607.523 467.291,607.523 467.291,615.271 
		492.134,615.271 492.134,629.877 467.291,629.877 467.291,637.531 499.526,637.531 499.526,652.232 	"/>
	<polygon points="270.329,637.832 270.329,637.803 259.131,637.803 259.131,592.834 243.891,592.834 243.891,652.232 
		291.184,652.232 291.184,637.832 	"/>
	<path d="M108.552,512.524c-1.421,1.505-9.165,9.344-10.584,10.864c-2.324-3.032-6.604-6.238-12.392-6.238
		c-9.435,0-16.022,7.567-16.022,16.379c0,9.264,7.31,16.662,15.855,16.662c5.161,0,9.97-2.227,12.56-6.329H84.611v-13.537h31.689
		c0.091,0.631,0.091,1.869,0.091,2.5c0,17.549-13.614,31.794-31.074,31.794c-17.275,0-30.896-14.078-30.896-31.09
		c0-16.112,13.004-31.154,31.429-31.154C95.644,502.375,103.574,507.182,108.552,512.524"/>
	<path d="M121.657,563.191v-59.396h31.615c10.778,0,19.941,7.924,19.941,20.035c0,8.196-5.333,15.497-11.656,17.709
		c1.424,2.417,11.564,19.692,12.82,21.652h-18.79c-1.064-1.778-9.801-17.275-11.138-19.602H136.7v19.602H121.657z M136.7,529.177
		h15.147c3.214,0,6.14-1.96,6.14-5.348c0-3.563-2.758-5.433-6.14-5.433H136.7V529.177z"/>
	<polygon points="180.209,563.191 180.209,503.794 227.41,503.794 227.41,518.489 195.176,518.489 195.176,526.238 220.019,526.238 
		220.019,540.833 195.176,540.833 195.176,548.506 227.41,548.506 227.41,563.191 	"/>
	<path d="M235.229,563.191v-60.56c2.392,2.145,29.561,26.546,32.492,29.032v-27.869h14.869v60.549
		c-2.924-2.572-29.913-26.801-32.409-29.029v27.877H235.229z"/>
	<path d="M288.715,533.529c0-17.267,13.89-31.154,31.074-31.154c17.289,0,31.171,13.888,31.171,31.154
		c0,17.195-13.882,31.09-31.08,31.09C302.604,564.619,288.715,550.724,288.715,533.529 M303.856,533.529
		c0,9.188,6.942,16.306,16.023,16.306c9.087,0,15.953-7.118,15.953-16.306c0-9.175-6.95-16.379-16.044-16.379
		C310.799,517.15,303.856,524.354,303.856,533.529"/>
	<path d="M399.78,531.046c4.886,1.237,9.346,6.047,9.346,14.245c0,9.893-7.651,17.899-18.25,17.899h-33.754v-59.396h33.846
		c8.091,0,15.309,6.587,15.309,14.953C406.276,524.458,403.428,528.996,399.78,531.046 M371.723,525.425h15.772
		c2.4,0,3.829-1.505,3.829-3.558c0-2.05-1.429-3.562-3.829-3.562h-15.772V525.425z M371.723,548.672h16.736
		c2.774,0,4.469-2.128,4.469-4.361c0-2.682-1.96-4.446-4.469-4.446h-16.736V548.672z"/>
	<polygon points="469.593,563.191 469.593,503.794 516.778,503.794 516.778,518.489 484.542,518.489 484.542,526.238 
		509.388,526.238 509.388,540.833 484.542,540.833 484.542,548.506 516.778,548.506 516.778,563.191 	"/>
	<polygon points="448.397,548.757 448.397,548.764 431.104,548.764 431.104,503.794 415.88,503.794 415.88,563.191 463.173,563.191 
		463.173,548.757 	"/>
	<path d="M489.499,156.587l-203.45,55.619l18.649,68.217l78.987-21.594c-17.378,36.066-54.282,60.957-97,60.957
		c-59.43,0-107.583-48.18-107.583-107.608c0-59.223,48.099-107.256,107.017-107.595V1.26C168.283,1.28,75.348,95.643,75.348,212.042
		c0,116.414,94.356,210.786,210.768,210.786c111.026,0,201.999-85.845,210.177-194.782c0.397-5.283,0.598-10.619,0.598-16.004
		C496.89,192.849,494.308,174.259,489.499,156.587"/>
</g>
</svg>
